<svg width="546" height="208" viewBox="0 0 546 208" fill="none" xmlns="http://www.w3.org/2000/svg">
<rect x="82" y="48" width="80" height="64" rx="6" fill="#E6E6E6"/>
<path d="M117.401 80.3906L119.424 77.5469H121.494L118.526 81.7109L121.588 86H119.526L117.416 83.0469L115.315 86H113.244L116.307 81.7109L113.346 77.5469H115.401L117.401 80.3906ZM128.646 83.7109C128.646 83.5651 128.613 83.4349 128.545 83.3203C128.482 83.2057 128.376 83.0964 128.225 82.9922C128.063 82.8984 127.852 82.8099 127.592 82.7266C127.331 82.6432 127.006 82.5651 126.615 82.4922C126.126 82.3932 125.678 82.2708 125.271 82.125C124.87 81.9792 124.524 81.8021 124.232 81.5938C123.946 81.3958 123.722 81.1615 123.56 80.8906C123.399 80.6198 123.318 80.3047 123.318 79.9453C123.318 79.6016 123.399 79.276 123.56 78.9688C123.727 78.6562 123.964 78.3828 124.271 78.1484C124.573 77.9141 124.938 77.7292 125.365 77.5938C125.797 77.4583 126.277 77.3906 126.803 77.3906C127.365 77.3906 127.87 77.4609 128.318 77.6016C128.766 77.737 129.146 77.9245 129.459 78.1641C129.766 78.4036 130.003 78.6875 130.17 79.0156C130.336 79.3438 130.42 79.6979 130.42 80.0781H128.553C128.553 79.9219 128.519 79.7734 128.451 79.6328C128.389 79.487 128.295 79.3568 128.17 79.2422C128.024 79.1068 127.836 79 127.607 78.9219C127.378 78.8385 127.11 78.7969 126.803 78.7969C126.521 78.7969 126.274 78.8281 126.06 78.8906C125.852 78.9479 125.68 79.0286 125.545 79.1328C125.409 79.2266 125.308 79.3385 125.24 79.4688C125.172 79.5938 125.139 79.7266 125.139 79.8672C125.139 80.013 125.167 80.1458 125.225 80.2656C125.282 80.3802 125.383 80.4818 125.529 80.5703C125.665 80.6641 125.852 80.75 126.092 80.8281C126.336 80.9062 126.644 80.9766 127.014 81.0391C127.529 81.1328 128.001 81.2474 128.428 81.3828C128.855 81.5182 129.219 81.6849 129.521 81.8828C129.823 82.0911 130.058 82.3359 130.225 82.6172C130.391 82.8984 130.475 83.2318 130.475 83.6172C130.475 83.9922 130.386 84.3359 130.209 84.6484C130.037 84.9609 129.792 85.2292 129.475 85.4531C129.152 85.6771 128.766 85.8516 128.318 85.9766C127.87 86.1016 127.373 86.1641 126.826 86.1641C126.217 86.1641 125.675 86.0833 125.201 85.9219C124.732 85.7604 124.339 85.5469 124.021 85.2812C123.698 85.0208 123.454 84.7214 123.287 84.3828C123.12 84.0443 123.037 83.7005 123.037 83.3516H124.85C124.865 83.612 124.933 83.8333 125.053 84.0156C125.178 84.1927 125.334 84.3359 125.521 84.4453C125.704 84.5599 125.912 84.6432 126.146 84.6953C126.381 84.7422 126.618 84.7656 126.857 84.7656C127.18 84.7656 127.461 84.7318 127.701 84.6641C127.946 84.5964 128.141 84.5052 128.287 84.3906C128.407 84.2969 128.495 84.1953 128.553 84.0859C128.615 83.9714 128.646 83.8464 128.646 83.7109Z" fill="black" fill-opacity="0.8"/>
<rect x="274" width="80" height="64" rx="6" fill="#E6E6E6"/>
<path d="M304.723 27.4844V29.5469H307.903V30.9453H304.723V34.9844C304.723 35.2969 304.759 35.5599 304.832 35.7734C304.91 35.9818 305.017 36.1458 305.153 36.2656C305.288 36.3906 305.449 36.4792 305.637 36.5312C305.824 36.5833 306.03 36.6094 306.254 36.6094C306.416 36.6094 306.582 36.6016 306.754 36.5859C306.926 36.5703 307.093 36.5495 307.254 36.5234C307.41 36.5026 307.556 36.4792 307.692 36.4531C307.832 36.4219 307.949 36.3958 308.043 36.375L308.246 37.6641C308.111 37.7474 307.947 37.8203 307.754 37.8828C307.567 37.9401 307.363 37.9896 307.145 38.0312C306.926 38.0729 306.697 38.1042 306.457 38.125C306.223 38.151 305.988 38.1641 305.754 38.1641C305.327 38.1641 304.934 38.1068 304.574 37.9922C304.22 37.8724 303.916 37.6875 303.66 37.4375C303.405 37.1927 303.205 36.8776 303.059 36.4922C302.918 36.1068 302.848 35.6432 302.848 35.1016V30.9453H300.801V29.5469H302.848V27.4844H304.723ZM317.516 39.4766H310.375V38H317.516V39.4766ZM324.894 38H323.011V28.9375L320.097 30.0078V28.3594L324.777 26.625H324.894V38Z" fill="black" fill-opacity="0.8"/>
<path d="M166 78.5C165.172 78.5 164.5 79.1716 164.5 80C164.5 80.8284 165.172 81.5 166 81.5V78.5ZM211.069 33.5C211.897 33.5 212.569 32.8284 212.569 32C212.569 31.1716 211.897 30.5 211.069 30.5V33.5ZM256.069 30.5C255.24 30.5 254.569 31.1716 254.569 32C254.569 32.8284 255.24 33.5 256.069 33.5V30.5ZM271.061 33.0607C271.646 32.4749 271.646 31.5251 271.061 30.9393L261.515 21.3934C260.929 20.8076 259.979 20.8076 259.393 21.3934C258.808 21.9792 258.808 22.9289 259.393 23.5147L267.879 32L259.393 40.4853C258.808 41.0711 258.808 42.0208 259.393 42.6066C259.979 43.1924 260.929 43.1924 261.515 42.6066L271.061 33.0607ZM166 81.5H170V78.5H166V81.5ZM195.5 56V49.0689H192.5V56H195.5ZM256.069 33.5H270V30.5H256.069V33.5ZM195.5 49.0689C195.5 40.4704 202.47 33.5 211.069 33.5V30.5C200.814 30.5 192.5 38.8136 192.5 49.0689H195.5ZM170 81.5C184.083 81.5 195.5 70.0833 195.5 56H192.5C192.5 68.4264 182.426 78.5 170 78.5V81.5Z" fill="#B3B3B3"/>
<path d="M227.839 38H225.956L222.261 30.1719L222.253 38H220.354V26.625H222.261L225.932 34.4219L225.948 26.625H227.839V38ZM230.405 29.5469H234.889V36.4531H237.374V38H230.405V36.4531H233.006V31.1016H230.405V29.5469ZM232.835 27.3594C232.835 27.2083 232.861 27.0703 232.913 26.9453C232.965 26.8151 233.04 26.7031 233.139 26.6094C233.233 26.5208 233.345 26.4531 233.475 26.4062C233.611 26.3542 233.762 26.3281 233.928 26.3281C234.21 26.3281 234.436 26.401 234.608 26.5469C234.785 26.6875 234.887 26.8698 234.913 27.0938C234.949 27.3229 234.91 27.5234 234.795 27.6953C234.681 27.862 234.514 27.974 234.295 28.0312C234.186 28.1302 234.056 28.1953 233.905 28.2266C233.754 28.2578 233.587 28.2448 233.405 28.1875C233.217 28.1302 233.074 28.0286 232.975 27.8828C232.881 27.7318 232.835 27.5573 232.835 27.3594ZM239.768 26H244.323V36.4531H246.885V38H239.768V36.4531H242.44V27.5547H239.768V26Z" fill="black" fill-opacity="0.8"/>
<rect x="274" y="96" width="80" height="64" rx="6" fill="#E6E6E6"/>
<path d="M306.752 137.414C306.57 137.414 306.395 137.398 306.229 137.367C306.067 137.341 305.911 137.31 305.76 137.273L306.018 135.812C306.122 135.818 306.239 135.823 306.369 135.828C306.505 135.839 306.614 135.844 306.697 135.844C306.88 135.844 307.044 135.789 307.19 135.68C307.335 135.576 307.463 135.456 307.572 135.32C307.677 135.185 307.76 135.065 307.822 134.961C307.89 134.857 307.953 134.747 308.01 134.633L308.541 133.625L304.94 125.547H306.994L309.096 130.711L309.385 131.641L309.736 130.734L311.776 125.547H313.846L309.557 135.281C309.458 135.5 309.333 135.732 309.182 135.977C309.036 136.227 308.851 136.456 308.627 136.664C308.403 136.878 308.137 137.055 307.83 137.195C307.523 137.341 307.164 137.414 306.752 137.414ZM320.646 131.711C320.646 131.565 320.613 131.435 320.545 131.32C320.482 131.206 320.376 131.096 320.225 130.992C320.063 130.898 319.852 130.81 319.592 130.727C319.331 130.643 319.006 130.565 318.615 130.492C318.126 130.393 317.678 130.271 317.271 130.125C316.87 129.979 316.524 129.802 316.232 129.594C315.946 129.396 315.722 129.161 315.56 128.891C315.399 128.62 315.318 128.305 315.318 127.945C315.318 127.602 315.399 127.276 315.56 126.969C315.727 126.656 315.964 126.383 316.271 126.148C316.573 125.914 316.938 125.729 317.365 125.594C317.797 125.458 318.277 125.391 318.803 125.391C319.365 125.391 319.87 125.461 320.318 125.602C320.766 125.737 321.146 125.924 321.459 126.164C321.766 126.404 322.003 126.688 322.17 127.016C322.336 127.344 322.42 127.698 322.42 128.078H320.553C320.553 127.922 320.519 127.773 320.451 127.633C320.389 127.487 320.295 127.357 320.17 127.242C320.024 127.107 319.836 127 319.607 126.922C319.378 126.839 319.11 126.797 318.803 126.797C318.521 126.797 318.274 126.828 318.06 126.891C317.852 126.948 317.68 127.029 317.545 127.133C317.409 127.227 317.308 127.339 317.24 127.469C317.172 127.594 317.139 127.727 317.139 127.867C317.139 128.013 317.167 128.146 317.225 128.266C317.282 128.38 317.383 128.482 317.529 128.57C317.665 128.664 317.852 128.75 318.092 128.828C318.336 128.906 318.644 128.977 319.014 129.039C319.529 129.133 320.001 129.247 320.428 129.383C320.855 129.518 321.219 129.685 321.521 129.883C321.823 130.091 322.058 130.336 322.225 130.617C322.391 130.898 322.475 131.232 322.475 131.617C322.475 131.992 322.386 132.336 322.209 132.648C322.037 132.961 321.792 133.229 321.475 133.453C321.152 133.677 320.766 133.852 320.318 133.977C319.87 134.102 319.373 134.164 318.826 134.164C318.217 134.164 317.675 134.083 317.201 133.922C316.732 133.76 316.339 133.547 316.021 133.281C315.698 133.021 315.454 132.721 315.287 132.383C315.12 132.044 315.037 131.701 315.037 131.352H316.85C316.865 131.612 316.933 131.833 317.053 132.016C317.178 132.193 317.334 132.336 317.521 132.445C317.704 132.56 317.912 132.643 318.146 132.695C318.381 132.742 318.618 132.766 318.857 132.766C319.18 132.766 319.461 132.732 319.701 132.664C319.946 132.596 320.141 132.505 320.287 132.391C320.407 132.297 320.495 132.195 320.553 132.086C320.615 131.971 320.646 131.846 320.646 131.711Z" fill="black" fill-opacity="0.8"/>
<path d="M166 78.5C165.172 78.5 164.5 79.1716 164.5 80C164.5 80.8284 165.172 81.5 166 81.5V78.5ZM204.698 129.5C205.526 129.5 206.198 128.828 206.198 128C206.198 127.172 205.526 126.5 204.698 126.5V129.5ZM258.698 126.5C257.869 126.5 257.198 127.172 257.198 128C257.198 128.828 257.869 129.5 258.698 129.5V126.5ZM271.061 129.061C271.646 128.475 271.646 127.525 271.061 126.939L261.515 117.393C260.929 116.808 259.979 116.808 259.393 117.393C258.808 117.979 258.808 118.929 259.393 119.515L267.879 128L259.393 136.485C258.808 137.071 258.808 138.021 259.393 138.607C259.979 139.192 260.929 139.192 261.515 138.607L271.061 129.061ZM166 81.5H170V78.5H166V81.5ZM192.5 104V117.302H195.5V104H192.5ZM258.698 129.5H270V126.5H258.698V129.5ZM192.5 117.302C192.5 124.039 197.961 129.5 204.698 129.5V126.5C199.618 126.5 195.5 122.382 195.5 117.302H192.5ZM170 81.5C182.426 81.5 192.5 91.5736 192.5 104H195.5C195.5 89.9167 184.083 78.5 170 78.5V81.5Z" fill="#B3B3B3"/>
<path d="M221.587 130.5C221.535 131.052 221.404 131.555 221.196 132.008C220.988 132.456 220.714 132.839 220.376 133.156C220.032 133.479 219.623 133.729 219.149 133.906C218.68 134.078 218.16 134.164 217.587 134.164C217.118 134.164 216.686 134.102 216.29 133.977C215.899 133.846 215.55 133.664 215.243 133.43C214.946 133.211 214.686 132.948 214.462 132.641C214.243 132.328 214.058 131.987 213.907 131.617C213.756 131.253 213.641 130.857 213.563 130.43C213.49 130.003 213.454 129.557 213.454 129.094V127.539C213.454 127.096 213.49 126.669 213.563 126.258C213.636 125.846 213.745 125.458 213.891 125.094C214.048 124.688 214.248 124.32 214.493 123.992C214.743 123.659 215.029 123.375 215.352 123.141C215.66 122.927 215.998 122.76 216.368 122.641C216.743 122.521 217.152 122.461 217.594 122.461C218.193 122.461 218.727 122.549 219.196 122.727C219.67 122.904 220.074 123.154 220.407 123.477C220.745 123.805 221.011 124.201 221.204 124.664C221.402 125.128 221.529 125.643 221.587 126.211H219.712C219.68 125.872 219.615 125.568 219.516 125.297C219.423 125.021 219.292 124.786 219.126 124.594C218.954 124.401 218.743 124.255 218.493 124.156C218.243 124.052 217.943 124 217.594 124C217.35 124 217.128 124.034 216.93 124.102C216.738 124.169 216.566 124.266 216.415 124.391C216.206 124.542 216.032 124.74 215.891 124.984C215.756 125.224 215.644 125.492 215.555 125.789C215.488 126.049 215.436 126.328 215.399 126.625C215.368 126.917 215.352 127.216 215.352 127.523V129.094C215.352 129.474 215.373 129.831 215.415 130.164C215.462 130.497 215.532 130.802 215.626 131.078C215.699 131.307 215.79 131.516 215.899 131.703C216.014 131.891 216.149 132.052 216.305 132.188C216.467 132.333 216.652 132.445 216.86 132.523C217.074 132.596 217.316 132.633 217.587 132.633C217.91 132.633 218.196 132.586 218.446 132.492C218.696 132.398 218.91 132.26 219.087 132.078C219.258 131.901 219.397 131.68 219.501 131.414C219.605 131.148 219.673 130.844 219.704 130.5H221.587ZM223.043 129.695C223.043 129.081 223.132 128.513 223.309 127.992C223.486 127.466 223.744 127.01 224.082 126.625C224.416 126.24 224.825 125.938 225.309 125.719C225.793 125.5 226.346 125.391 226.965 125.391C227.585 125.391 228.137 125.5 228.622 125.719C229.111 125.938 229.525 126.24 229.864 126.625C230.197 127.01 230.452 127.466 230.629 127.992C230.806 128.513 230.895 129.081 230.895 129.695V129.859C230.895 130.479 230.806 131.049 230.629 131.57C230.452 132.091 230.197 132.544 229.864 132.93C229.53 133.315 229.119 133.617 228.629 133.836C228.145 134.055 227.596 134.164 226.981 134.164C226.361 134.164 225.806 134.055 225.317 133.836C224.827 133.617 224.416 133.315 224.082 132.93C223.744 132.544 223.486 132.091 223.309 131.57C223.132 131.049 223.043 130.479 223.043 129.859V129.695ZM224.911 129.859C224.911 130.24 224.95 130.599 225.028 130.938C225.111 131.276 225.239 131.573 225.411 131.828C225.577 132.083 225.791 132.286 226.051 132.438C226.312 132.583 226.622 132.656 226.981 132.656C227.33 132.656 227.635 132.583 227.895 132.438C228.155 132.286 228.369 132.083 228.536 131.828C228.702 131.573 228.825 131.276 228.903 130.938C228.986 130.599 229.028 130.24 229.028 129.859V129.695C229.028 129.326 228.986 128.971 228.903 128.633C228.819 128.294 228.697 127.997 228.536 127.742C228.364 127.487 228.148 127.284 227.887 127.133C227.632 126.982 227.325 126.906 226.965 126.906C226.611 126.906 226.304 126.982 226.043 127.133C225.788 127.284 225.577 127.487 225.411 127.742C225.239 127.997 225.111 128.294 225.028 128.633C224.95 128.971 224.911 129.326 224.911 129.695V129.859ZM232.821 134V125.547H234.508L234.625 126.75C234.74 126.589 234.865 126.44 235 126.305C235.141 126.164 235.289 126.039 235.446 125.93C235.696 125.758 235.969 125.625 236.266 125.531C236.563 125.438 236.875 125.391 237.203 125.391C237.636 125.391 238.031 125.453 238.391 125.578C238.75 125.703 239.058 125.901 239.313 126.172C239.568 126.443 239.766 126.789 239.906 127.211C240.047 127.628 240.117 128.133 240.117 128.727V134H238.25V128.758C238.25 128.409 238.211 128.117 238.133 127.883C238.055 127.648 237.94 127.461 237.789 127.32C237.638 127.18 237.456 127.081 237.242 127.023C237.029 126.961 236.784 126.93 236.508 126.93C236.279 126.93 236.065 126.961 235.867 127.023C235.67 127.081 235.49 127.164 235.328 127.273C235.203 127.357 235.086 127.458 234.977 127.578C234.867 127.698 234.771 127.828 234.688 127.969V134H232.821ZM247.777 131.711C247.777 131.565 247.744 131.435 247.676 131.32C247.613 131.206 247.507 131.096 247.355 130.992C247.194 130.898 246.983 130.81 246.723 130.727C246.462 130.643 246.137 130.565 245.746 130.492C245.257 130.393 244.809 130.271 244.402 130.125C244.001 129.979 243.655 129.802 243.363 129.594C243.077 129.396 242.853 129.161 242.691 128.891C242.53 128.62 242.449 128.305 242.449 127.945C242.449 127.602 242.53 127.276 242.691 126.969C242.858 126.656 243.095 126.383 243.402 126.148C243.704 125.914 244.069 125.729 244.496 125.594C244.928 125.458 245.408 125.391 245.934 125.391C246.496 125.391 247.001 125.461 247.449 125.602C247.897 125.737 248.277 125.924 248.59 126.164C248.897 126.404 249.134 126.688 249.301 127.016C249.467 127.344 249.551 127.698 249.551 128.078H247.684C247.684 127.922 247.65 127.773 247.582 127.633C247.52 127.487 247.426 127.357 247.301 127.242C247.155 127.107 246.967 127 246.738 126.922C246.509 126.839 246.241 126.797 245.934 126.797C245.652 126.797 245.405 126.828 245.191 126.891C244.983 126.948 244.811 127.029 244.676 127.133C244.54 127.227 244.439 127.339 244.371 127.469C244.303 127.594 244.27 127.727 244.27 127.867C244.27 128.013 244.298 128.146 244.355 128.266C244.413 128.38 244.514 128.482 244.66 128.57C244.796 128.664 244.983 128.75 245.223 128.828C245.467 128.906 245.775 128.977 246.145 129.039C246.66 129.133 247.132 129.247 247.559 129.383C247.986 129.518 248.35 129.685 248.652 129.883C248.954 130.091 249.189 130.336 249.355 130.617C249.522 130.898 249.605 131.232 249.605 131.617C249.605 131.992 249.517 132.336 249.34 132.648C249.168 132.961 248.923 133.229 248.605 133.453C248.283 133.677 247.897 133.852 247.449 133.977C247.001 134.102 246.504 134.164 245.957 134.164C245.348 134.164 244.806 134.083 244.332 133.922C243.863 133.76 243.47 133.547 243.152 133.281C242.829 133.021 242.585 132.721 242.418 132.383C242.251 132.044 242.168 131.701 242.168 131.352H243.98C243.996 131.612 244.064 131.833 244.184 132.016C244.309 132.193 244.465 132.336 244.652 132.445C244.835 132.56 245.043 132.643 245.277 132.695C245.512 132.742 245.749 132.766 245.988 132.766C246.311 132.766 246.592 132.732 246.832 132.664C247.077 132.596 247.272 132.505 247.418 132.391C247.538 132.297 247.626 132.195 247.684 132.086C247.746 131.971 247.777 131.846 247.777 131.711Z" fill="black" fill-opacity="0.8"/>
<rect x="466" y="48" width="80" height="64" rx="6" fill="#E6E6E6"/>
<path d="M496.723 75.4844V77.5469H499.903V78.9453H496.723V82.9844C496.723 83.2969 496.759 83.5599 496.832 83.7734C496.91 83.9818 497.017 84.1458 497.153 84.2656C497.288 84.3906 497.449 84.4792 497.637 84.5312C497.824 84.5833 498.03 84.6094 498.254 84.6094C498.416 84.6094 498.582 84.6016 498.754 84.5859C498.926 84.5703 499.093 84.5495 499.254 84.5234C499.41 84.5026 499.556 84.4792 499.692 84.4531C499.832 84.4219 499.949 84.3958 500.043 84.375L500.246 85.6641C500.111 85.7474 499.947 85.8203 499.754 85.8828C499.567 85.9401 499.363 85.9896 499.145 86.0312C498.926 86.0729 498.697 86.1042 498.457 86.125C498.223 86.151 497.988 86.1641 497.754 86.1641C497.327 86.1641 496.934 86.1068 496.574 85.9922C496.22 85.8724 495.916 85.6875 495.66 85.4375C495.405 85.1927 495.205 84.8776 495.059 84.4922C494.918 84.1068 494.848 83.6432 494.848 83.1016V78.9453H492.801V77.5469H494.848V75.4844H496.723ZM509.516 87.4766H502.375V86H509.516V87.4766ZM519.082 86H511.449V84.7031L515.152 80.6719C515.459 80.3333 515.717 80.0312 515.926 79.7656C516.134 79.4948 516.303 79.2474 516.433 79.0234C516.558 78.7995 516.647 78.5911 516.699 78.3984C516.756 78.2005 516.785 78.0026 516.785 77.8047C516.785 77.5391 516.746 77.2969 516.668 77.0781C516.59 76.8594 516.475 76.6719 516.324 76.5156C516.173 76.3594 515.991 76.237 515.777 76.1484C515.569 76.0599 515.334 76.0156 515.074 76.0156C514.741 76.0156 514.452 76.0625 514.207 76.1562C513.962 76.25 513.759 76.3828 513.597 76.5547C513.431 76.737 513.306 76.9583 513.222 77.2188C513.139 77.474 513.097 77.7656 513.097 78.0938H511.222C511.222 77.599 511.314 77.1328 511.496 76.6953C511.678 76.2526 511.939 75.8672 512.277 75.5391C512.61 75.2109 513.017 74.9505 513.496 74.7578C513.98 74.5651 514.519 74.4688 515.113 74.4688C515.67 74.4688 516.168 74.5495 516.605 74.7109C517.048 74.8724 517.42 75.0964 517.722 75.3828C518.019 75.6693 518.246 76.013 518.402 76.4141C518.558 76.8099 518.636 77.2474 518.636 77.7266C518.636 78.0859 518.577 78.4349 518.457 78.7734C518.342 79.1068 518.183 79.4375 517.98 79.7656C517.772 80.0938 517.525 80.4245 517.238 80.7578C516.957 81.0911 516.65 81.4349 516.316 81.7891L513.785 84.4922H519.082V86Z" fill="black" fill-opacity="0.8"/>
<path d="M358 126.5C357.172 126.5 356.5 127.172 356.5 128C356.5 128.828 357.172 129.5 358 129.5V126.5ZM406.14 81.5C406.968 81.5 407.64 80.8284 407.64 80C407.64 79.1716 406.968 78.5 406.14 78.5V81.5ZM451.14 78.5C450.311 78.5 449.64 79.1716 449.64 80C449.64 80.8284 450.311 81.5 451.14 81.5V78.5ZM463.061 81.0607C463.646 80.4749 463.646 79.5251 463.061 78.9393L453.515 69.3934C452.929 68.8076 451.979 68.8076 451.393 69.3934C450.808 69.9792 450.808 70.9289 451.393 71.5147L459.879 80L451.393 88.4853C450.808 89.0711 450.808 90.0208 451.393 90.6066C451.979 91.1924 452.929 91.1924 453.515 90.6066L463.061 81.0607ZM358 129.5H362V126.5H358V129.5ZM387.5 104V100.14H384.5V104H387.5ZM451.14 81.5H462V78.5H451.14V81.5ZM387.5 100.14C387.5 89.8453 395.845 81.5 406.14 81.5V78.5C394.188 78.5 384.5 88.1885 384.5 100.14H387.5ZM362 129.5C376.083 129.5 387.5 118.083 387.5 104H384.5C384.5 116.426 374.426 126.5 362 126.5V129.5Z" fill="#B3B3B3"/>
<path d="M422.91 86H421.027L417.331 78.1719L417.324 86H415.425V74.625H417.331L421.003 82.4219L421.019 74.625H422.91V86ZM425.476 77.5469H429.96V84.4531H432.445V86H425.476V84.4531H428.077V79.1016H425.476V77.5469ZM427.905 75.3594C427.905 75.2083 427.931 75.0703 427.984 74.9453C428.036 74.8151 428.111 74.7031 428.21 74.6094C428.304 74.5208 428.416 74.4531 428.546 74.4062C428.681 74.3542 428.833 74.3281 428.999 74.3281C429.28 74.3281 429.507 74.401 429.679 74.5469C429.856 74.6875 429.958 74.8698 429.984 75.0938C430.02 75.3229 429.981 75.5234 429.866 75.6953C429.752 75.862 429.585 75.974 429.366 76.0312C429.257 76.1302 429.127 76.1953 428.976 76.2266C428.825 76.2578 428.658 76.2448 428.476 76.1875C428.288 76.1302 428.145 76.0286 428.046 75.8828C427.952 75.7318 427.905 75.5573 427.905 75.3594ZM434.839 74H439.394V84.4531H441.956V86H434.839V84.4531H437.511V75.5547H434.839V74Z" fill="black" fill-opacity="0.8"/>
<rect x="466" y="144" width="80" height="64" rx="6" fill="#E6E6E6"/>
<path d="M496.723 171.484V173.547H499.903V174.945H496.723V178.984C496.723 179.297 496.759 179.56 496.832 179.773C496.91 179.982 497.017 180.146 497.153 180.266C497.288 180.391 497.449 180.479 497.637 180.531C497.824 180.583 498.03 180.609 498.254 180.609C498.416 180.609 498.582 180.602 498.754 180.586C498.926 180.57 499.093 180.549 499.254 180.523C499.41 180.503 499.556 180.479 499.692 180.453C499.832 180.422 499.949 180.396 500.043 180.375L500.246 181.664C500.111 181.747 499.947 181.82 499.754 181.883C499.567 181.94 499.363 181.99 499.145 182.031C498.926 182.073 498.697 182.104 498.457 182.125C498.223 182.151 497.988 182.164 497.754 182.164C497.327 182.164 496.934 182.107 496.574 181.992C496.22 181.872 495.916 181.688 495.66 181.438C495.405 181.193 495.205 180.878 495.059 180.492C494.918 180.107 494.848 179.643 494.848 179.102V174.945H492.801V173.547H494.848V171.484H496.723ZM509.516 183.477H502.375V182H509.516V183.477ZM513.816 175.469H514.933C515.267 175.469 515.558 175.424 515.808 175.336C516.058 175.242 516.264 175.112 516.426 174.945C516.577 174.799 516.691 174.62 516.769 174.406C516.853 174.188 516.894 173.953 516.894 173.703C516.894 173.432 516.855 173.19 516.777 172.977C516.704 172.763 516.595 172.581 516.449 172.43C516.303 172.289 516.118 172.18 515.894 172.102C515.676 172.023 515.423 171.984 515.136 171.984C514.881 171.984 514.644 172.023 514.426 172.102C514.212 172.174 514.027 172.281 513.871 172.422C513.709 172.562 513.582 172.732 513.488 172.93C513.4 173.128 513.355 173.349 513.355 173.594H511.488C511.488 173.141 511.579 172.724 511.761 172.344C511.944 171.964 512.196 171.633 512.519 171.352C512.842 171.076 513.222 170.859 513.66 170.703C514.103 170.547 514.587 170.469 515.113 170.469C515.65 170.469 516.142 170.539 516.59 170.68C517.043 170.815 517.428 171.018 517.746 171.289C518.069 171.565 518.319 171.904 518.496 172.305C518.673 172.706 518.761 173.172 518.761 173.703C518.761 173.938 518.725 174.172 518.652 174.406C518.584 174.641 518.48 174.867 518.34 175.086C518.199 175.299 518.022 175.5 517.808 175.688C517.595 175.875 517.345 176.034 517.058 176.164C517.397 176.279 517.683 176.43 517.918 176.617C518.157 176.799 518.353 177.005 518.504 177.234C518.655 177.469 518.764 177.721 518.832 177.992C518.9 178.258 518.933 178.534 518.933 178.82C518.933 179.352 518.834 179.826 518.636 180.242C518.444 180.654 518.178 181 517.84 181.281C517.496 181.568 517.09 181.786 516.621 181.938C516.157 182.083 515.655 182.156 515.113 182.156C514.623 182.156 514.152 182.089 513.699 181.953C513.246 181.818 512.847 181.615 512.504 181.344C512.16 181.073 511.884 180.74 511.676 180.344C511.472 179.943 511.371 179.477 511.371 178.945H513.238C513.238 179.195 513.282 179.427 513.371 179.641C513.465 179.849 513.597 180.026 513.769 180.172C513.936 180.323 514.134 180.44 514.363 180.523C514.597 180.607 514.855 180.648 515.136 180.648C515.439 180.648 515.709 180.609 515.949 180.531C516.194 180.448 516.4 180.326 516.566 180.164C516.728 180.013 516.85 179.826 516.933 179.602C517.022 179.372 517.066 179.112 517.066 178.82C517.066 178.492 517.017 178.211 516.918 177.977C516.819 177.742 516.676 177.547 516.488 177.391C516.301 177.24 516.074 177.128 515.808 177.055C515.548 176.977 515.256 176.938 514.933 176.938H513.816V175.469Z" fill="black" fill-opacity="0.8"/>
<path d="M358 126.5C357.172 126.5 356.5 127.172 356.5 128C356.5 128.828 357.172 129.5 358 129.5V126.5ZM398.412 177.5C399.241 177.5 399.912 176.828 399.912 176C399.912 175.172 399.241 174.5 398.412 174.5V177.5ZM452.412 174.5C451.584 174.5 450.912 175.172 450.912 176C450.912 176.828 451.584 177.5 452.412 177.5V174.5ZM463.061 177.061C463.646 176.475 463.646 175.525 463.061 174.939L453.515 165.393C452.929 164.808 451.979 164.808 451.393 165.393C450.808 165.979 450.808 166.929 451.393 167.515L459.879 176L451.393 184.485C450.808 185.071 450.808 186.021 451.393 186.607C451.979 187.192 452.929 187.192 453.515 186.607L463.061 177.061ZM358 129.5H362V126.5H358V129.5ZM384.5 152V163.588H387.5V152H384.5ZM452.412 177.5H462V174.5H452.412V177.5ZM384.5 163.588C384.5 171.271 390.729 177.5 398.412 177.5V174.5C392.386 174.5 387.5 169.614 387.5 163.588H384.5ZM362 129.5C374.426 129.5 384.5 139.574 384.5 152H387.5C387.5 137.917 376.083 126.5 362 126.5V129.5Z" fill="#B3B3B3"/>
<path d="M415.301 178.5C415.249 179.052 415.119 179.555 414.911 180.008C414.702 180.456 414.429 180.839 414.09 181.156C413.747 181.479 413.338 181.729 412.864 181.906C412.395 182.078 411.874 182.164 411.301 182.164C410.833 182.164 410.4 182.102 410.005 181.977C409.614 181.846 409.265 181.664 408.958 181.43C408.661 181.211 408.4 180.948 408.176 180.641C407.958 180.328 407.773 179.987 407.622 179.617C407.471 179.253 407.356 178.857 407.278 178.43C407.205 178.003 407.169 177.557 407.169 177.094V175.539C407.169 175.096 407.205 174.669 407.278 174.258C407.351 173.846 407.46 173.458 407.606 173.094C407.762 172.688 407.963 172.32 408.208 171.992C408.458 171.659 408.744 171.375 409.067 171.141C409.374 170.927 409.713 170.76 410.083 170.641C410.458 170.521 410.867 170.461 411.309 170.461C411.908 170.461 412.442 170.549 412.911 170.727C413.385 170.904 413.788 171.154 414.122 171.477C414.46 171.805 414.726 172.201 414.919 172.664C415.117 173.128 415.244 173.643 415.301 174.211H413.426C413.395 173.872 413.33 173.568 413.231 173.297C413.137 173.021 413.007 172.786 412.84 172.594C412.669 172.401 412.458 172.255 412.208 172.156C411.958 172.052 411.658 172 411.309 172C411.064 172 410.843 172.034 410.645 172.102C410.452 172.169 410.281 172.266 410.13 172.391C409.921 172.542 409.747 172.74 409.606 172.984C409.471 173.224 409.359 173.492 409.27 173.789C409.202 174.049 409.15 174.328 409.114 174.625C409.083 174.917 409.067 175.216 409.067 175.523V177.094C409.067 177.474 409.088 177.831 409.13 178.164C409.176 178.497 409.247 178.802 409.34 179.078C409.413 179.307 409.505 179.516 409.614 179.703C409.729 179.891 409.864 180.052 410.02 180.188C410.182 180.333 410.367 180.445 410.575 180.523C410.788 180.596 411.031 180.633 411.301 180.633C411.624 180.633 411.911 180.586 412.161 180.492C412.411 180.398 412.624 180.26 412.801 180.078C412.973 179.901 413.111 179.68 413.215 179.414C413.32 179.148 413.387 178.844 413.419 178.5H415.301ZM416.758 177.695C416.758 177.081 416.847 176.513 417.024 175.992C417.201 175.466 417.459 175.01 417.797 174.625C418.131 174.24 418.539 173.938 419.024 173.719C419.508 173.5 420.06 173.391 420.68 173.391C421.3 173.391 421.852 173.5 422.336 173.719C422.826 173.938 423.24 174.24 423.579 174.625C423.912 175.01 424.167 175.466 424.344 175.992C424.521 176.513 424.61 177.081 424.61 177.695V177.859C424.61 178.479 424.521 179.049 424.344 179.57C424.167 180.091 423.912 180.544 423.579 180.93C423.245 181.315 422.834 181.617 422.344 181.836C421.86 182.055 421.31 182.164 420.696 182.164C420.076 182.164 419.521 182.055 419.032 181.836C418.542 181.617 418.131 181.315 417.797 180.93C417.459 180.544 417.201 180.091 417.024 179.57C416.847 179.049 416.758 178.479 416.758 177.859V177.695ZM418.625 177.859C418.625 178.24 418.664 178.599 418.743 178.938C418.826 179.276 418.954 179.573 419.125 179.828C419.292 180.083 419.506 180.286 419.766 180.438C420.026 180.583 420.336 180.656 420.696 180.656C421.045 180.656 421.349 180.583 421.61 180.438C421.87 180.286 422.084 180.083 422.25 179.828C422.417 179.573 422.539 179.276 422.618 178.938C422.701 178.599 422.743 178.24 422.743 177.859V177.695C422.743 177.326 422.701 176.971 422.618 176.633C422.534 176.294 422.412 175.997 422.25 175.742C422.079 175.487 421.862 175.284 421.602 175.133C421.347 174.982 421.039 174.906 420.68 174.906C420.326 174.906 420.019 174.982 419.758 175.133C419.503 175.284 419.292 175.487 419.125 175.742C418.954 175.997 418.826 176.294 418.743 176.633C418.664 176.971 418.625 177.326 418.625 177.695V177.859ZM426.535 182V173.547H428.223L428.34 174.75C428.455 174.589 428.58 174.44 428.715 174.305C428.856 174.164 429.004 174.039 429.16 173.93C429.41 173.758 429.684 173.625 429.981 173.531C430.278 173.438 430.59 173.391 430.918 173.391C431.35 173.391 431.746 173.453 432.106 173.578C432.465 173.703 432.772 173.901 433.028 174.172C433.283 174.443 433.481 174.789 433.621 175.211C433.762 175.628 433.832 176.133 433.832 176.727V182H431.965V176.758C431.965 176.409 431.926 176.117 431.848 175.883C431.77 175.648 431.655 175.461 431.504 175.32C431.353 175.18 431.171 175.081 430.957 175.023C430.744 174.961 430.499 174.93 430.223 174.93C429.994 174.93 429.78 174.961 429.582 175.023C429.384 175.081 429.205 175.164 429.043 175.273C428.918 175.357 428.801 175.458 428.692 175.578C428.582 175.698 428.486 175.828 428.403 175.969V182H426.535ZM441.492 179.711C441.492 179.565 441.458 179.435 441.391 179.32C441.328 179.206 441.221 179.096 441.07 178.992C440.909 178.898 440.698 178.81 440.437 178.727C440.177 178.643 439.852 178.565 439.461 178.492C438.971 178.393 438.523 178.271 438.117 178.125C437.716 177.979 437.37 177.802 437.078 177.594C436.792 177.396 436.568 177.161 436.406 176.891C436.245 176.62 436.164 176.305 436.164 175.945C436.164 175.602 436.245 175.276 436.406 174.969C436.573 174.656 436.81 174.383 437.117 174.148C437.419 173.914 437.784 173.729 438.211 173.594C438.643 173.458 439.122 173.391 439.648 173.391C440.211 173.391 440.716 173.461 441.164 173.602C441.612 173.737 441.992 173.924 442.305 174.164C442.612 174.404 442.849 174.688 443.016 175.016C443.182 175.344 443.266 175.698 443.266 176.078H441.398C441.398 175.922 441.365 175.773 441.297 175.633C441.234 175.487 441.141 175.357 441.016 175.242C440.87 175.107 440.682 175 440.453 174.922C440.224 174.839 439.956 174.797 439.648 174.797C439.367 174.797 439.12 174.828 438.906 174.891C438.698 174.948 438.526 175.029 438.391 175.133C438.255 175.227 438.154 175.339 438.086 175.469C438.018 175.594 437.984 175.727 437.984 175.867C437.984 176.013 438.013 176.146 438.07 176.266C438.128 176.38 438.229 176.482 438.375 176.57C438.51 176.664 438.698 176.75 438.937 176.828C439.182 176.906 439.49 176.977 439.859 177.039C440.375 177.133 440.846 177.247 441.273 177.383C441.701 177.518 442.065 177.685 442.367 177.883C442.669 178.091 442.904 178.336 443.07 178.617C443.237 178.898 443.32 179.232 443.32 179.617C443.32 179.992 443.232 180.336 443.055 180.648C442.883 180.961 442.638 181.229 442.32 181.453C441.997 181.677 441.612 181.852 441.164 181.977C440.716 182.102 440.219 182.164 439.672 182.164C439.062 182.164 438.521 182.083 438.047 181.922C437.578 181.76 437.185 181.547 436.867 181.281C436.544 181.021 436.299 180.721 436.133 180.383C435.966 180.044 435.883 179.701 435.883 179.352H437.695C437.711 179.612 437.779 179.833 437.898 180.016C438.023 180.193 438.18 180.336 438.367 180.445C438.549 180.56 438.758 180.643 438.992 180.695C439.227 180.742 439.464 180.766 439.703 180.766C440.026 180.766 440.307 180.732 440.547 180.664C440.792 180.596 440.987 180.505 441.133 180.391C441.253 180.297 441.341 180.195 441.398 180.086C441.461 179.971 441.492 179.846 441.492 179.711Z" fill="black" fill-opacity="0.8"/>
<path d="M2 78.5C1.17157 78.5 0.5 79.1716 0.5 80C0.5 80.8284 1.17157 81.5 2 81.5V78.5ZM79.0607 81.0607C79.6464 80.4749 79.6464 79.5251 79.0607 78.9393L69.5147 69.3934C68.9289 68.8076 67.9792 68.8076 67.3934 69.3934C66.8076 69.9792 66.8076 70.9289 67.3934 71.5147L75.8787 80L67.3934 88.4853C66.8076 89.0711 66.8076 90.0208 67.3934 90.6066C67.9792 91.1924 68.9289 91.1924 69.5147 90.6066L79.0607 81.0607ZM2 81.5H78V78.5H2V81.5Z" fill="#B3B3B3"/>
</svg>
